<?xml version="1.0" encoding="utf-8"?>
<!-- Generator: Adobe Illustrator 19.2.1, SVG Export Plug-In . SVG Version: 6.00 Build 0)  -->
<svg version="1.1" id="Layer_1" xmlns="http://www.w3.org/2000/svg" xmlns:xlink="http://www.w3.org/1999/xlink" x="0px" y="0px"
	 viewBox="0 0 319.6 54.6" style="enable-background:new 0 0 319.6 54.6;" xml:space="preserve" width="265px" height="46px">
<style type="text/css">
	.st0{fill:#FFFFFF;}
</style>
<g>
	<path class="st0" d="M8.7,49.7c4.7,0,8.4-2.2,8.4-7.6v-2.6c0-1,0.2-1.8,0.2-1.8h-0.1c-1.3,2.7-3.7,4.5-7.4,4.5
		C4,42.2,0,37.8,0,30.9s3.7-11.2,9.5-11.2c6.3,0,7.7,4.3,7.7,4.3h0.1c0,0-0.1-0.3-0.1-0.8v-2.9h1.8v21.9c0,6.7-4.8,9.4-10.1,9.4
		c-2.4,0-4.8-0.6-6.9-1.7l0.9-1.6C2.8,48.1,5.5,49.7,8.7,49.7z M17.1,30.9c0-7.1-3.3-9.4-7.7-9.4c-4.7,0-7.5,3.4-7.5,9.4
		s3.3,9.6,8,9.6C13.8,40.4,17.1,38,17.1,30.9z"/>
	<path class="st0" d="M26.5,11.4h1.8v25.8c0,3.1,1.6,3.4,2.6,3.4c0.4,0,0.7,0,0.7,0v1.7c0,0-0.4,0.1-0.8,0.1c-1.3,0-4.3-0.5-4.3-4.6
		V11.4z"/>
	<path class="st0" d="M46.6,19.7c6.3,0,11.4,5,11.4,11.4c0,6.6-5.1,11.7-11.4,11.7s-11.4-5.1-11.4-11.7
		C35.2,24.7,40.3,19.7,46.6,19.7z M46.6,41c5.2,0,9.5-4.3,9.5-9.9c0-5.5-4.2-9.6-9.5-9.6c-5.2,0-9.5,4.1-9.5,9.6
		C37.1,36.7,41.3,41,46.6,41z"/>
	<path class="st0" d="M64.1,11.4H66v11.4c0,1-0.2,1.8-0.2,1.8h0.1c0,0,1.9-5,8-5c5.9,0,9.5,4.7,9.5,11.5c0,7-4.1,11.5-9.9,11.5
		c-5.5,0-7.6-5-7.6-5h-0.1c0,0,0.2,0.8,0.2,1.9v2.5h-1.8V11.4z M73.6,41c4.3,0,7.8-3.6,7.8-9.7c0-5.9-3.2-9.7-7.7-9.7
		c-4,0-7.8,2.9-7.8,9.8C65.9,36.2,68.4,41,73.6,41z"/>
	<path class="st0" d="M89.3,20.2h1.8v13.3c0,3.8,0.5,7.4,5.4,7.4c5.5,0,9-4.8,9-10V20.2h1.8v22h-1.8v-3.9c0-1,0.2-1.8,0.2-1.8h-0.1
		c-0.7,2.1-3.8,6.2-9.1,6.2c-5.4,0-7.3-3-7.3-8.6C89.3,34.2,89.3,20.2,89.3,20.2z"/>
	<path class="st0" d="M114.5,38.2c0,0,2.5,2.8,6.8,2.8c2.7,0,5.1-1.4,5.1-4.1c0-5.6-12.1-4-12.1-11.2c0-3.9,3.3-5.9,7-5.9
		c4.5,0,6.5,2.4,6.5,2.4l-1.1,1.5c0,0-1.8-2.1-5.5-2.1c-2.5,0-5,1.1-5,4c0,5.7,12.1,4,12.1,11.3c0,3.5-3,5.9-7,5.9
		c-5.3,0-8-3.2-8-3.2L114.5,38.2z"/>
	<path class="st0" d="M207.9,11.2h10.3c9.5,0,15.8,5.7,15.8,15.5c0,9.9-6.3,15.6-15.8,15.6h-10.3V11.2z M217.9,38.5
		c7,0,11.6-4.1,11.6-11.8c0-7.6-4.6-11.7-11.6-11.7h-5.6v23.5C212.2,38.5,217.9,38.5,217.9,38.5z"/>
	<path class="st0" d="M252.1,10.6c9,0,15.9,6.9,15.9,15.8c0,9.2-7,16.3-15.9,16.3s-16-7.1-16-16.3C236.2,17.6,243.2,10.6,252.1,10.6
		z M252.1,38.8c6.3,0,11.4-5.3,11.4-12.3c0-6.8-5.1-11.9-11.4-11.9s-11.5,5.1-11.5,11.9C240.6,33.5,245.8,38.8,252.1,38.8z"/>
	<path class="st0" d="M285.9,10.6c7.5,0,11.3,4.1,11.3,4.1l-2.2,3.3c0,0-3.6-3.4-9-3.4c-7,0-11.5,5.3-11.5,11.9
		c0,6.6,4.6,12.3,11.5,12.3c5.9,0,9.6-4,9.6-4l2.3,3.1c0,0-4.3,4.9-12.1,4.9c-9.3,0-15.9-7.1-15.9-16.2
		C270.1,17.5,276.9,10.6,285.9,10.6z"/>
	<path class="st0" d="M301.9,35.4c0,0,3.3,3.3,7.9,3.3c2.9,0,5.4-1.6,5.4-4.6c0-6.7-15.1-5.3-15.1-14.8c0-4.8,4.2-8.7,10-8.7
		c5.8,0,8.8,3.1,8.8,3.1l-2,3.6c0,0-2.9-2.7-6.8-2.7c-3.3,0-5.6,2.1-5.6,4.5c0,6.4,15.1,4.7,15.1,14.8c0,4.8-3.7,8.8-9.9,8.8
		c-6.6,0-10.3-4.1-10.3-4.1L301.9,35.4z"/>
</g>
<path class="st0" d="M167.9,0c-15.1,0-27.3,12.2-27.3,27.3c0,15.1,12.2,27.3,27.3,27.3s27.3-12.2,27.3-27.3
	C195.2,12.2,183,0,167.9,0z M181.6,42.6c0,1.1-0.9,2-2,2h-22c-1.1,0-2-0.9-2-2v-31c0-1.1,0.9-2,2-2h11.7c0,0,0,10.2,0,10.2
	c0,1.1,0.9,2,2,2c0,0,10.2,0,10.2,0V42.6z M171.5,19.7V9.6l10.1,10.1H171.5z"/>
</svg>
