<?xml version="1.0" encoding="utf-8"?>
<!-- Generator: Adobe Illustrator 18.1.1, SVG Export Plug-In . SVG Version: 6.00 Build 0)  -->
<!DOCTYPE svg PUBLIC "-//W3C//DTD SVG 1.1//EN" "http://www.w3.org/Graphics/SVG/1.1/DTD/svg11.dtd">
<svg version="1.1" id="Layer_1" xmlns="http://www.w3.org/2000/svg" xmlns:xlink="http://www.w3.org/1999/xlink" x="0px" y="0px"
	 viewBox="0 0 64 64" enable-background="new 0 0 64 64" xml:space="preserve">
<g>
	<path fill="#31609B" d="M25.2,26.1c-3.9,0-4.4,5.3-4.4,8.2c0,3.1,0.7,7.4,4.7,7.4c3.1,0,4.2-4,4.2-6.5v-1.9
		C29.7,30.3,29,26.1,25.2,26.1z"/>
	<path fill="#31609B" d="M38.5,39.4c0.9-2.2,1.4-4.6,1.4-7.2c0-10.8-8.8-19.6-19.6-19.6c-10.8,0-19.6,8.8-19.6,19.6
		c0,10.8,8.8,19.6,19.6,19.6c1.8,0,3.4-0.3,5.1-0.7c-0.1,0-0.2,0-0.3,0c-3.2,0-7.1-0.8-7.2-4.7h3.6c0.4,2.4,1.8,3.2,4.2,3.2
		c3.8,0,4.1-3.5,4.1-6.4v-2.9h-0.1c-1.1,1.9-2.7,2.9-4.9,2.9c-5.2,0-7.2-4.6-7.2-9.2c0-4.8,1.8-9.4,7.3-9.4c2.1,0,3.8,1.1,4.8,2.9
		h0.1V25h5.9v0.7c-1.7,0.2-2.9,0.6-2.9,2.6v15.4c0,1.8-0.3,3.2-0.8,4.3l-0.1,0.2h31.9v-8.7H38.5z"/>
</g>
<path fill="#31609B" d="M36.8,25v8.7h26.8V25H36.8z M60.6,31.4h-4v-4h4V31.4z"/>
<rect x="49.9" y="27.4" fill="#FF931E" width="4" height="4"/>
<rect x="56.5" y="41.6" fill="#FF931E" width="4" height="4"/>
<rect x="49.9" y="41.6" fill="#FFFFFF" width="4" height="4"/>
<path fill="#31609B" d="M29.8,52.8v8.7h33.8v-8.7H29.8z M60.6,59.2h-4v-4h4V59.2z"/>
<rect x="49.9" y="55.2" fill="#FF931E" width="4" height="4"/>
</svg>
