<?xml version="1.0" encoding="utf-8"?>
<!-- Generator: Adobe Illustrator 18.1.1, SVG Export Plug-In . SVG Version: 6.00 Build 0)  -->
<!DOCTYPE svg PUBLIC "-//W3C//DTD SVG 1.1//EN" "http://www.w3.org/Graphics/SVG/1.1/DTD/svg11.dtd">
<svg version="1.1" xmlns="http://www.w3.org/2000/svg" xmlns:xlink="http://www.w3.org/1999/xlink" x="0px" y="0px"
	 viewBox="0 0 256 256" enable-background="new 0 0 256 256" xml:space="preserve">
<g id="Layer_1">
</g>
<g id="Layer_5" display="none">
</g>
<g id="Layer_4">
</g>
<g id="Layer_2">
	<g id="search_1_">
		<path fill="#231F20" d="M49.4,106.5c0,31.8,25.8,57.6,57.6,57.6c14.5,0,27.7-5.4,37.9-14.3l57.3,57.3l4.4-4.4l-57.2-57.2
			c9.4-10.3,15.3-23.9,15.3-39c0-31.8-25.8-57.6-57.6-57.6S49.4,74.7,49.4,106.5z M158.4,106.5c0,28.3-23,51.3-51.3,51.3
			c-28.3,0-51.3-23-51.3-51.3c0-28.3,23-51.4,51.3-51.4C135.3,55.1,158.4,78.2,158.4,106.5z"/>
	</g>
</g>
<g id="guides" display="none">
</g>
</svg>
