<?xml version="1.0" encoding="utf-8"?>
<!-- Generator: Adobe Illustrator 21.1.0, SVG Export Plug-In . SVG Version: 6.00 Build 0)  -->
<svg version="1.1" id="Layer_1" xmlns="http://www.w3.org/2000/svg" xmlns:xlink="http://www.w3.org/1999/xlink" x="0px" y="0px"
	 viewBox="0 0 171.4 154" style="enable-background:new 0 0 171.4 154;" xml:space="preserve">
<style type="text/css">
	.st0{fill:#2C5086;}
</style>
<path class="st0" d="M85.7,0C38.4,0,0,38.4,0,85.7c0,27.9,13.3,52.7,34,68.3V66.3c21.8,13.9,80.1,14.7,103.5,0V154
	c20.6-15.6,34-40.4,34-68.3C171.4,38.4,133,0,85.7,0z M85.7,71.6c-28.6,0-51.8-6.3-51.8-14c0-7.7,23.2-14,51.8-14s51.7,6.3,51.7,14
	C137.5,65.3,114.3,71.6,85.7,71.6z"/>
</svg>
