<?xml version="1.0" encoding="utf-8"?>
<!-- Generator: Adobe Illustrator 21.1.0, SVG Export Plug-In . SVG Version: 6.00 Build 0)  -->
<svg version="1.1" id="Layer_1" xmlns:sketch="http://www.bohemiancoding.com/sketch/ns"
	 xmlns="http://www.w3.org/2000/svg" xmlns:xlink="http://www.w3.org/1999/xlink" x="0px" y="0px" viewBox="0 0 261.2 259.9"
	 style="enable-background:new 0 0 261.2 259.9;" xml:space="preserve">
<style type="text/css">
	.st0{fill:#E46E2E;}
	.st1{fill:#767474;}
	.st2{fill:#313940;}
</style>
<title>Artboard</title>
<desc>Created with Sketch.</desc>
<g id="Page-1" sketch:type="MSPage">
	<g id="Artboard" sketch:type="MSArtboardGroup">
		<g id="Group-Copy-4-_x2B_-Group-_x2B_-Group-Copy" sketch:type="MSLayerGroup">
			<g id="Group-Copy-4" transform="translate(248.000000, 26.000000)" sketch:type="MSShapeGroup">
				<path id="Fill-9" class="st0" d="M-117,179.3c-42.6,0-79.7-15.3-99-37.9c14.6,40.6,53.4,69.5,99,69.5s84.4-29,99-69.5
					C-37.3,164-74.4,179.3-117,179.3"/>
				<path id="Fill-10" class="st0" d="M-117,32c42.6,0,79.7,15.3,99,37.9C-32.6,29.4-71.4,0.4-117,0.4s-84.4,29-99,69.5
					C-196.6,47.4-159.6,32-117,32"/>
				<path id="Fill-11" class="st1" d="M-196.8,233.9c-9.1,0.4-16.9-6.7-17.2-15.8c-0.4-9.1,6.7-16.9,15.8-17.2
					c9.1-0.4,16.9,6.7,17.2,15.8C-180.6,225.8-187.6,233.5-196.8,233.9z"/>
				<path id="Fill-12" class="st1" d="M-209.5,18.4c-5.7,0.2-10.5-4.2-10.8-9.9c-0.2-5.7,4.2-10.5,9.9-10.8
					c5.7-0.2,10.5,4.2,10.8,9.9C-199.3,13.3-203.8,18.1-209.5,18.4z"/>
				<path id="Fill-8" class="st1" d="M-45.2,6.1C-54.1,6.5-61.6-0.4-62-9.3c-0.4-8.9,6.5-16.4,15.4-16.7c8.9-0.4,16.4,6.5,16.7,15.4
					C-29.5-1.8-36.4,5.7-45.2,6.1z"/>
				<g id="Group-Copy" transform="translate(0.000000, 100.870704)">
					<path id="Fill-1" class="st2" d="M-237.3,18.7c0,9.5-0.7,12.7-2.7,15c-1.7,1.9-4.6,2.8-7.9,3l0.7,5.7c3.9,0,9.2-1.3,12.4-4.5
						c3.6-3.6,4.8-8.6,4.8-16.4v-36.1h-7.3V18.7"/>
					<path id="Fill-2" class="st2" d="M-182.9,14.4c0,4.1,0.1,7.7,0.3,10.8h-6.5l-0.4-6.5h-0.2c-1.9,3.2-6.1,7.4-13.2,7.4
						c-6.3,0-13.8-3.5-13.8-17.4v-23.3h7.3v22c0,7.6,2.3,12.7,8.9,12.7c4.9,0,8.3-3.4,9.6-6.6c0.4-1.1,0.7-2.4,0.7-3.7v-24.4h7.3
						V14.4"/>
					<path id="Fill-3" class="st2" d="M-169.2-1.5c0-5.1-0.2-9.2-0.3-13h6.5l0.3,6.8h0.2c3-4.8,7.7-7.7,14.2-7.7
						c9.7,0,17,8.1,17,20.2c0,14.3-8.8,21.4-18.2,21.4c-5.3,0-9.9-2.3-12.3-6.2h-0.2v21.6h-7.2V-1.5L-169.2-1.5z M-162,9.1
						c0,1.1,0.2,2.1,0.3,3c1.3,5,5.7,8.5,10.9,8.5c7.7,0,12.2-6.2,12.2-15.4c0-8-4.2-14.8-11.9-14.8c-5,0-9.6,3.5-11,9
						c-0.2,0.9-0.5,2-0.5,3V9.1L-162,9.1z"/>
					<path id="Fill-4" class="st2" d="M-118.3-14.5l8.8,23.5c0.9,2.6,1.9,5.8,2.6,8.1h0.2c0.7-2.4,1.6-5.4,2.6-8.3l7.9-23.3h7.7
						l-10.9,28.3c-5.2,13.6-8.8,20.6-13.7,24.9c-3.6,3.1-7.1,4.4-8.9,4.7l-1.8-6.1c1.8-0.6,4.2-1.7,6.4-3.5c2-1.6,4.5-4.4,6.1-8.1
						c0.3-0.7,0.6-1.3,0.6-1.7c0-0.4-0.2-1-0.5-1.9l-14.8-36.6H-118.3"/>
					<path id="Fill-5" class="st2" d="M-69.5-26v11.4H-59V-9h-10.4v21.4c0,4.9,1.4,7.7,5.5,7.7c1.9,0,3.3-0.2,4.2-0.5l0.3,5.4
						c-1.4,0.6-3.6,1-6.5,1c-3.4,0-6.1-1.1-7.9-3c-2.1-2.1-2.8-5.7-2.8-10.4V-9h-6.2v-5.5h6.2v-9.5L-69.5-26"/>
					<path id="Fill-6" class="st2" d="M-45.6,6.7c0.2,9.8,6.5,13.8,13.7,13.8c5.2,0,8.4-0.9,11.1-2.1l1.2,5.2
						c-2.6,1.2-7,2.5-13.3,2.5c-12.3,0-19.7-8.1-19.7-20c0-12,7.1-21.4,18.8-21.4c13.1,0,16.6,11.4,16.6,18.7c0,1.5-0.2,2.6-0.2,3.4
						H-45.6L-45.6,6.7z M-24.3,1.5c0.1-4.6-1.9-11.8-10.1-11.8c-7.4,0-10.6,6.7-11.2,11.8H-24.3L-24.3,1.5z"/>
					<path id="Fill-7" class="st2" d="M-6.5-2.1c0-4.7-0.1-8.7-0.3-12.4h6.4l0.2,7.8h0.3c1.8-5.3,6.2-8.7,11.1-8.7
						c0.8,0,1.4,0.1,2.1,0.2v6.8c-0.7-0.2-1.5-0.2-2.5-0.2C5.6-8.6,2-4.8,1,0.7C0.8,1.7,0.7,2.8,0.7,4v21.2h-7.2V-2.1"/>
				</g>
			</g>
		</g>
	</g>
</g>
</svg>
